<mxfile host="app.diagrams.net" modified="2024-01-15T02:17:19.469Z" agent="Mozilla/5.0 (X11; Linux x86_64) AppleWebKit/537.36 (KHTML, like Gecko) Chrome/119.0.0.0 Safari/537.36" etag="m70nmxWcs9un0t4rsKD2" version="22.1.18" type="github">
  <diagram name="第 1 页" id="o1Z1498ztjakBuj8D0e2">
    <mxGraphModel dx="491" dy="684" grid="1" gridSize="10" guides="1" tooltips="1" connect="1" arrows="1" fold="1" page="1" pageScale="1" pageWidth="827" pageHeight="1169" math="1" shadow="0">
      <root>
        <mxCell id="0" />
        <mxCell id="1" parent="0" />
        <mxCell id="PCyBLXziddyc69oZDZju-2" value="" style="endArrow=classic;html=1;rounded=0;exitX=0.759;exitY=0.401;exitDx=0;exitDy=0;exitPerimeter=0;" edge="1" parent="1" source="PCyBLXziddyc69oZDZju-10" target="PCyBLXziddyc69oZDZju-3">
          <mxGeometry width="50" height="50" relative="1" as="geometry">
            <mxPoint x="120" y="380" as="sourcePoint" />
            <mxPoint x="310" y="380" as="targetPoint" />
          </mxGeometry>
        </mxCell>
        <mxCell id="PCyBLXziddyc69oZDZju-5" value="" style="edgeStyle=orthogonalEdgeStyle;rounded=0;orthogonalLoop=1;jettySize=auto;html=1;" edge="1" parent="1" source="PCyBLXziddyc69oZDZju-3" target="PCyBLXziddyc69oZDZju-4">
          <mxGeometry relative="1" as="geometry" />
        </mxCell>
        <mxCell id="PCyBLXziddyc69oZDZju-3" value="" style="shape=waypoint;sketch=0;fillStyle=solid;size=6;pointerEvents=1;points=[];fillColor=none;resizable=0;rotatable=0;perimeter=centerPerimeter;snapToPoint=1;" vertex="1" parent="1">
          <mxGeometry x="160" y="370" width="20" height="20" as="geometry" />
        </mxCell>
        <mxCell id="PCyBLXziddyc69oZDZju-7" value="" style="edgeStyle=orthogonalEdgeStyle;rounded=0;orthogonalLoop=1;jettySize=auto;html=1;" edge="1" parent="1" source="PCyBLXziddyc69oZDZju-4" target="PCyBLXziddyc69oZDZju-6">
          <mxGeometry relative="1" as="geometry" />
        </mxCell>
        <mxCell id="PCyBLXziddyc69oZDZju-4" value="" style="shape=waypoint;sketch=0;fillStyle=solid;size=6;pointerEvents=1;points=[];fillColor=none;resizable=0;rotatable=0;perimeter=centerPerimeter;snapToPoint=1;" vertex="1" parent="1">
          <mxGeometry x="260" y="370" width="20" height="20" as="geometry" />
        </mxCell>
        <mxCell id="PCyBLXziddyc69oZDZju-9" value="" style="edgeStyle=orthogonalEdgeStyle;rounded=0;orthogonalLoop=1;jettySize=auto;html=1;entryX=0.729;entryY=0.724;entryDx=0;entryDy=0;entryPerimeter=0;" edge="1" parent="1" source="PCyBLXziddyc69oZDZju-6" target="PCyBLXziddyc69oZDZju-11">
          <mxGeometry relative="1" as="geometry" />
        </mxCell>
        <mxCell id="PCyBLXziddyc69oZDZju-6" value="" style="shape=waypoint;sketch=0;fillStyle=solid;size=6;pointerEvents=1;points=[];fillColor=none;resizable=0;rotatable=0;perimeter=centerPerimeter;snapToPoint=1;" vertex="1" parent="1">
          <mxGeometry x="360" y="370" width="20" height="20" as="geometry" />
        </mxCell>
        <mxCell id="PCyBLXziddyc69oZDZju-8" value="" style="shape=waypoint;sketch=0;fillStyle=solid;size=6;pointerEvents=1;points=[];fillColor=none;resizable=0;rotatable=0;perimeter=centerPerimeter;snapToPoint=1;" vertex="1" parent="1">
          <mxGeometry x="460" y="370" width="20" height="20" as="geometry" />
        </mxCell>
        <mxCell id="PCyBLXziddyc69oZDZju-10" value="" style="line;strokeWidth=2;html=1;rotation=90;" vertex="1" parent="1">
          <mxGeometry x="-92.5" y="267.5" width="415" height="10" as="geometry" />
        </mxCell>
        <mxCell id="PCyBLXziddyc69oZDZju-11" value="" style="line;strokeWidth=2;html=1;rotation=90;" vertex="1" parent="1">
          <mxGeometry x="302.5" y="272.5" width="445" height="10" as="geometry" />
        </mxCell>
        <mxCell id="PCyBLXziddyc69oZDZju-13" value="0" style="text;html=1;align=center;verticalAlign=middle;resizable=0;points=[];autosize=1;strokeColor=none;fillColor=none;" vertex="1" parent="1">
          <mxGeometry x="156" y="378" width="30" height="30" as="geometry" />
        </mxCell>
        <mxCell id="PCyBLXziddyc69oZDZju-14" value="1" style="text;html=1;align=center;verticalAlign=middle;resizable=0;points=[];autosize=1;strokeColor=none;fillColor=none;" vertex="1" parent="1">
          <mxGeometry x="256" y="378" width="30" height="30" as="geometry" />
        </mxCell>
        <mxCell id="PCyBLXziddyc69oZDZju-15" value="2" style="text;html=1;align=center;verticalAlign=middle;resizable=0;points=[];autosize=1;strokeColor=none;fillColor=none;" vertex="1" parent="1">
          <mxGeometry x="356" y="378" width="30" height="30" as="geometry" />
        </mxCell>
        <mxCell id="PCyBLXziddyc69oZDZju-16" value="3" style="text;html=1;align=center;verticalAlign=middle;resizable=0;points=[];autosize=1;strokeColor=none;fillColor=none;" vertex="1" parent="1">
          <mxGeometry x="456" y="378" width="30" height="30" as="geometry" />
        </mxCell>
        <mxCell id="PCyBLXziddyc69oZDZju-19" value="" style="ellipse;whiteSpace=wrap;html=1;aspect=fixed;fillColor=#000000;" vertex="1" parent="1">
          <mxGeometry x="220" y="415" width="10" height="10" as="geometry" />
        </mxCell>
        <mxCell id="PCyBLXziddyc69oZDZju-21" value="data" style="text;html=1;align=center;verticalAlign=middle;resizable=0;points=[];autosize=1;strokeColor=none;fillColor=none;" vertex="1" parent="1">
          <mxGeometry x="200" y="415" width="50" height="30" as="geometry" />
        </mxCell>
        <mxCell id="PCyBLXziddyc69oZDZju-22" value="`msg_0`" style="text;html=1;align=center;verticalAlign=middle;resizable=0;points=[];autosize=1;strokeColor=none;fillColor=none;" vertex="1" parent="1">
          <mxGeometry x="136" y="348" width="70" height="30" as="geometry" />
        </mxCell>
        <mxCell id="PCyBLXziddyc69oZDZju-24" value="&lt;span style=&quot;color: rgb(0, 0, 0); font-family: Helvetica; font-size: 12px; font-style: normal; font-variant-ligatures: normal; font-variant-caps: normal; font-weight: 400; letter-spacing: normal; orphans: 2; text-align: center; text-indent: 0px; text-transform: none; widows: 2; word-spacing: 0px; -webkit-text-stroke-width: 0px; background-color: rgb(251, 251, 251); text-decoration-thickness: initial; text-decoration-style: initial; text-decoration-color: initial; float: none; display: inline !important;&quot;&gt;`msg_1`&lt;/span&gt;" style="text;whiteSpace=wrap;html=1;" vertex="1" parent="1">
          <mxGeometry x="246" y="348" width="80" height="40" as="geometry" />
        </mxCell>
        <mxCell id="PCyBLXziddyc69oZDZju-26" value="" style="endArrow=classic;startArrow=classic;html=1;rounded=0;" edge="1" parent="1">
          <mxGeometry width="50" height="50" relative="1" as="geometry">
            <mxPoint x="170" y="420" as="sourcePoint" />
            <mxPoint x="220" y="420" as="targetPoint" />
          </mxGeometry>
        </mxCell>
        <mxCell id="PCyBLXziddyc69oZDZju-27" value="" style="endArrow=classic;startArrow=classic;html=1;rounded=0;" edge="1" parent="1">
          <mxGeometry width="50" height="50" relative="1" as="geometry">
            <mxPoint x="230" y="419.76" as="sourcePoint" />
            <mxPoint x="270" y="420" as="targetPoint" />
          </mxGeometry>
        </mxCell>
        <mxCell id="PCyBLXziddyc69oZDZju-28" value="`alpha_1`" style="text;html=1;align=center;verticalAlign=middle;resizable=0;points=[];autosize=1;strokeColor=none;fillColor=none;" vertex="1" parent="1">
          <mxGeometry x="151" y="418" width="80" height="30" as="geometry" />
        </mxCell>
        <mxCell id="PCyBLXziddyc69oZDZju-29" value="`alpha_2`" style="text;html=1;align=center;verticalAlign=middle;resizable=0;points=[];autosize=1;strokeColor=none;fillColor=none;" vertex="1" parent="1">
          <mxGeometry x="210" y="418" width="80" height="30" as="geometry" />
        </mxCell>
        <mxCell id="PCyBLXziddyc69oZDZju-30" value="data = (`alpha_1 * msg_0+ alpha_2 * msg_1`)/2" style="text;html=1;align=center;verticalAlign=middle;resizable=0;points=[];autosize=1;strokeColor=none;fillColor=none;" vertex="1" parent="1">
          <mxGeometry x="120" y="530" width="290" height="30" as="geometry" />
        </mxCell>
        <mxCell id="PCyBLXziddyc69oZDZju-32" value="imu" style="text;html=1;align=center;verticalAlign=middle;resizable=0;points=[];autosize=1;strokeColor=none;fillColor=none;" vertex="1" parent="1">
          <mxGeometry x="56" y="368" width="50" height="30" as="geometry" />
        </mxCell>
        <mxCell id="PCyBLXziddyc69oZDZju-33" value="lidar" style="text;html=1;align=center;verticalAlign=middle;resizable=0;points=[];autosize=1;strokeColor=none;fillColor=none;" vertex="1" parent="1">
          <mxGeometry x="56" y="295" width="50" height="30" as="geometry" />
        </mxCell>
        <mxCell id="PCyBLXziddyc69oZDZju-34" value="gnss" style="text;html=1;align=center;verticalAlign=middle;resizable=0;points=[];autosize=1;strokeColor=none;fillColor=none;" vertex="1" parent="1">
          <mxGeometry x="50" y="140" width="50" height="30" as="geometry" />
        </mxCell>
        <mxCell id="PCyBLXziddyc69oZDZju-35" value="" style="endArrow=classic;html=1;rounded=0;entryX=0.482;entryY=0.467;entryDx=0;entryDy=0;entryPerimeter=0;" edge="1" parent="1" source="PCyBLXziddyc69oZDZju-46" target="PCyBLXziddyc69oZDZju-11">
          <mxGeometry width="50" height="50" relative="1" as="geometry">
            <mxPoint x="96" y="270" as="sourcePoint" />
            <mxPoint x="530" y="270" as="targetPoint" />
          </mxGeometry>
        </mxCell>
        <mxCell id="PCyBLXziddyc69oZDZju-36" value="" style="edgeStyle=orthogonalEdgeStyle;rounded=0;orthogonalLoop=1;jettySize=auto;html=1;exitX=0.494;exitY=0.514;exitDx=0;exitDy=0;exitPerimeter=0;" edge="1" parent="1" source="PCyBLXziddyc69oZDZju-10" target="PCyBLXziddyc69oZDZju-39">
          <mxGeometry relative="1" as="geometry">
            <mxPoint x="120" y="270" as="sourcePoint" />
          </mxGeometry>
        </mxCell>
        <mxCell id="PCyBLXziddyc69oZDZju-47" value="" style="edgeStyle=orthogonalEdgeStyle;rounded=0;orthogonalLoop=1;jettySize=auto;html=1;" edge="1" parent="1" source="PCyBLXziddyc69oZDZju-65" target="PCyBLXziddyc69oZDZju-46">
          <mxGeometry relative="1" as="geometry" />
        </mxCell>
        <mxCell id="PCyBLXziddyc69oZDZju-64" value="" style="edgeStyle=orthogonalEdgeStyle;rounded=0;orthogonalLoop=1;jettySize=auto;html=1;" edge="1" parent="1" source="PCyBLXziddyc69oZDZju-39" target="PCyBLXziddyc69oZDZju-63">
          <mxGeometry relative="1" as="geometry" />
        </mxCell>
        <mxCell id="PCyBLXziddyc69oZDZju-39" value="" style="shape=waypoint;sketch=0;fillStyle=solid;size=6;pointerEvents=1;points=[];fillColor=none;resizable=0;rotatable=0;perimeter=centerPerimeter;snapToPoint=1;" vertex="1" parent="1">
          <mxGeometry x="131" y="260" width="20" height="20" as="geometry" />
        </mxCell>
        <mxCell id="PCyBLXziddyc69oZDZju-46" value="" style="shape=waypoint;sketch=0;fillStyle=solid;size=6;pointerEvents=1;points=[];fillColor=none;resizable=0;rotatable=0;perimeter=centerPerimeter;snapToPoint=1;" vertex="1" parent="1">
          <mxGeometry x="480" y="260" width="20" height="20" as="geometry" />
        </mxCell>
        <mxCell id="PCyBLXziddyc69oZDZju-49" value="" style="endArrow=classic;html=1;rounded=0;entryX=0.482;entryY=0.467;entryDx=0;entryDy=0;entryPerimeter=0;" edge="1" parent="1" source="PCyBLXziddyc69oZDZju-54">
          <mxGeometry width="50" height="50" relative="1" as="geometry">
            <mxPoint x="96" y="150" as="sourcePoint" />
            <mxPoint x="525" y="149" as="targetPoint" />
          </mxGeometry>
        </mxCell>
        <mxCell id="PCyBLXziddyc69oZDZju-50" value="" style="edgeStyle=orthogonalEdgeStyle;rounded=0;orthogonalLoop=1;jettySize=auto;html=1;" edge="1" parent="1" source="PCyBLXziddyc69oZDZju-51" target="PCyBLXziddyc69oZDZju-53">
          <mxGeometry relative="1" as="geometry">
            <mxPoint x="116" y="150" as="sourcePoint" />
          </mxGeometry>
        </mxCell>
        <mxCell id="PCyBLXziddyc69oZDZju-52" value="" style="edgeStyle=orthogonalEdgeStyle;rounded=0;orthogonalLoop=1;jettySize=auto;html=1;" edge="1" parent="1" source="PCyBLXziddyc69oZDZju-53" target="PCyBLXziddyc69oZDZju-54">
          <mxGeometry relative="1" as="geometry" />
        </mxCell>
        <mxCell id="PCyBLXziddyc69oZDZju-53" value="" style="shape=waypoint;sketch=0;fillStyle=solid;size=6;pointerEvents=1;points=[];fillColor=none;resizable=0;rotatable=0;perimeter=centerPerimeter;snapToPoint=1;" vertex="1" parent="1">
          <mxGeometry x="276" y="140" width="20" height="20" as="geometry" />
        </mxCell>
        <mxCell id="PCyBLXziddyc69oZDZju-54" value="" style="shape=waypoint;sketch=0;fillStyle=solid;size=6;pointerEvents=1;points=[];fillColor=none;resizable=0;rotatable=0;perimeter=centerPerimeter;snapToPoint=1;" vertex="1" parent="1">
          <mxGeometry x="403" y="140" width="20" height="20" as="geometry" />
        </mxCell>
        <mxCell id="PCyBLXziddyc69oZDZju-55" value="" style="edgeStyle=orthogonalEdgeStyle;rounded=0;orthogonalLoop=1;jettySize=auto;html=1;" edge="1" parent="1" target="PCyBLXziddyc69oZDZju-51">
          <mxGeometry relative="1" as="geometry">
            <mxPoint x="116" y="150" as="sourcePoint" />
            <mxPoint x="286" y="150" as="targetPoint" />
          </mxGeometry>
        </mxCell>
        <mxCell id="PCyBLXziddyc69oZDZju-51" value="" style="shape=waypoint;sketch=0;fillStyle=solid;size=6;pointerEvents=1;points=[];fillColor=none;resizable=0;rotatable=0;perimeter=centerPerimeter;snapToPoint=1;" vertex="1" parent="1">
          <mxGeometry x="166" y="140" width="20" height="20" as="geometry" />
        </mxCell>
        <mxCell id="PCyBLXziddyc69oZDZju-59" value="i" style="text;html=1;align=center;verticalAlign=middle;resizable=0;points=[];autosize=1;strokeColor=none;fillColor=none;" vertex="1" parent="1">
          <mxGeometry x="146" y="328" width="30" height="30" as="geometry" />
        </mxCell>
        <mxCell id="PCyBLXziddyc69oZDZju-60" value="j" style="text;html=1;align=center;verticalAlign=middle;resizable=0;points=[];autosize=1;strokeColor=none;fillColor=none;" vertex="1" parent="1">
          <mxGeometry x="130" y="220" width="30" height="30" as="geometry" />
        </mxCell>
        <mxCell id="PCyBLXziddyc69oZDZju-61" value="k" style="text;html=1;align=center;verticalAlign=middle;resizable=0;points=[];autosize=1;strokeColor=none;fillColor=none;" vertex="1" parent="1">
          <mxGeometry x="161" y="118" width="30" height="30" as="geometry" />
        </mxCell>
        <mxCell id="PCyBLXziddyc69oZDZju-66" value="" style="edgeStyle=orthogonalEdgeStyle;rounded=0;orthogonalLoop=1;jettySize=auto;html=1;" edge="1" parent="1" source="PCyBLXziddyc69oZDZju-63" target="PCyBLXziddyc69oZDZju-65">
          <mxGeometry relative="1" as="geometry" />
        </mxCell>
        <mxCell id="PCyBLXziddyc69oZDZju-63" value="" style="shape=waypoint;sketch=0;fillStyle=solid;size=6;pointerEvents=1;points=[];fillColor=none;resizable=0;rotatable=0;perimeter=centerPerimeter;snapToPoint=1;" vertex="1" parent="1">
          <mxGeometry x="206" y="260" width="20" height="20" as="geometry" />
        </mxCell>
        <mxCell id="PCyBLXziddyc69oZDZju-69" value="" style="edgeStyle=orthogonalEdgeStyle;rounded=0;orthogonalLoop=1;jettySize=auto;html=1;" edge="1" parent="1" source="PCyBLXziddyc69oZDZju-39" target="PCyBLXziddyc69oZDZju-65">
          <mxGeometry relative="1" as="geometry">
            <mxPoint x="141" y="270" as="sourcePoint" />
            <mxPoint x="490" y="270" as="targetPoint" />
          </mxGeometry>
        </mxCell>
        <mxCell id="PCyBLXziddyc69oZDZju-71" value="" style="edgeStyle=orthogonalEdgeStyle;rounded=0;orthogonalLoop=1;jettySize=auto;html=1;" edge="1" parent="1" source="PCyBLXziddyc69oZDZju-65" target="PCyBLXziddyc69oZDZju-70">
          <mxGeometry relative="1" as="geometry" />
        </mxCell>
        <mxCell id="PCyBLXziddyc69oZDZju-65" value="" style="shape=waypoint;sketch=0;fillStyle=solid;size=6;pointerEvents=1;points=[];fillColor=none;resizable=0;rotatable=0;perimeter=centerPerimeter;snapToPoint=1;" vertex="1" parent="1">
          <mxGeometry x="326" y="260" width="20" height="20" as="geometry" />
        </mxCell>
        <mxCell id="PCyBLXziddyc69oZDZju-70" value="" style="shape=waypoint;sketch=0;fillStyle=solid;size=6;pointerEvents=1;points=[];fillColor=none;resizable=0;rotatable=0;perimeter=centerPerimeter;snapToPoint=1;" vertex="1" parent="1">
          <mxGeometry x="426" y="260" width="20" height="20" as="geometry" />
        </mxCell>
      </root>
    </mxGraphModel>
  </diagram>
</mxfile>
